<?xml version="1.0" standalone="no"?>
<!DOCTYPE svg PUBLIC "-//W3C//DTD SVG 20010904//EN"
 "http://www.w3.org/TR/2001/REC-SVG-20010904/DTD/svg10.dtd">
<svg version="1.0" xmlns="http://www.w3.org/2000/svg"
 width="442.000000pt" height="423.000000pt" viewBox="0 0 442.000000 423.000000"
 preserveAspectRatio="xMidYMid meet">

<g transform="translate(0.000000,423.000000) scale(0.100000,-0.100000)"
fill="#000000" stroke="none">
<path d="M1054 4118 c-40 -19 -44 -47 -44 -322 0 -261 0 -263 23 -284 32 -30
87 -29 115 1 21 23 22 30 22 285 0 277 -4 301 -47 321 -29 13 -41 13 -69 -1z"/>
<path d="M2014 4118 c-40 -19 -44 -47 -44 -322 0 -261 0 -263 23 -284 32 -30
87 -29 115 1 21 23 22 30 22 285 0 277 -4 301 -47 321 -29 13 -41 13 -69 -1z"/>
<path d="M2974 4118 c-40 -19 -44 -47 -44 -322 0 -261 0 -263 23 -284 32 -30
87 -29 115 1 21 23 22 30 22 285 0 277 -4 301 -47 321 -29 13 -41 13 -69 -1z"/>
<path d="M367 3799 c-111 -26 -226 -123 -280 -236 l-32 -68 0 -1286 0 -1285
37 -75 c46 -93 112 -158 206 -202 l67 -32 965 -3 c690 -2 972 1 991 9 33 13
53 56 43 93 -14 59 38 56 -1003 56 -722 0 -964 3 -995 12 -54 16 -128 90 -144
144 -9 31 -12 279 -12 1023 l0 981 1840 0 1840 0 0 -453 c0 -493 -1 -487 56
-501 37 -10 80 10 93 43 8 19 11 234 9 751 l-3 725 -32 67 c-44 94 -109 160
-202 206 l-75 37 -244 3 c-168 3 -253 0 -272 -8 -51 -21 -66 -92 -27 -127 21
-20 35 -22 272 -25 233 -3 253 -5 290 -25 47 -25 86 -64 111 -113 15 -29 19
-66 22 -227 l4 -193 -1842 0 -1842 0 4 193 c3 160 7 198 22 227 25 49 64 88
111 113 37 20 58 22 290 25 237 4 251 5 273 25 37 34 23 104 -25 126 -29 13
-459 13 -516 0z"/>
<path d="M1294 3798 c-46 -22 -57 -92 -21 -126 23 -21 30 -22 298 -22 275 0
276 0 297 23 36 38 23 104 -25 126 -31 14 -519 14 -549 -1z"/>
<path d="M2254 3798 c-46 -22 -57 -92 -21 -126 23 -21 30 -22 298 -22 275 0
276 0 297 23 36 38 23 104 -25 126 -31 14 -519 14 -549 -1z"/>
<path d="M1760 2502 c-61 -29 -110 -97 -110 -151 0 -72 83 -151 160 -151 77 0
160 79 160 151 0 36 -37 103 -72 129 -32 24 -109 36 -138 22z"/>
<path d="M2320 2502 c-61 -29 -110 -97 -110 -151 0 -72 83 -151 160 -151 77 0
160 79 160 151 0 36 -37 103 -72 129 -32 24 -109 36 -138 22z"/>
<path d="M2880 2502 c-61 -29 -110 -97 -110 -151 0 -72 83 -151 160 -151 77 0
160 79 160 151 0 36 -37 103 -72 129 -32 24 -109 36 -138 22z"/>
<path d="M3440 2502 c-61 -29 -110 -97 -110 -151 0 -72 83 -151 160 -151 77 0
160 79 160 151 0 36 -37 103 -72 129 -32 24 -109 36 -138 22z"/>
<path d="M3280 1965 c-395 -64 -720 -377 -802 -773 -25 -123 -21 -296 11 -417
76 -287 300 -542 579 -659 179 -75 399 -91 587 -42 266 70 497 253 624 495 27
53 62 137 77 186 25 83 28 104 28 255 0 151 -3 172 -28 254 -52 172 -129 299
-256 426 -218 219 -528 323 -820 275z m350 -171 c297 -76 523 -311 584 -606
20 -99 20 -257 0 -356 -61 -296 -277 -521 -579 -603 -112 -31 -306 -31 -420 0
-283 76 -486 275 -567 558 -33 113 -33 333 0 446 89 308 335 527 647 577 82
12 256 4 335 -16z"/>
<path d="M3060 1607 c-32 -16 -47 -59 -34 -95 13 -35 320 -530 347 -559 11
-13 31 -23 44 -23 36 0 455 152 475 172 41 41 6 128 -53 128 -13 0 -104 -27
-202 -61 -98 -34 -179 -60 -181 -58 -1 2 -69 111 -150 241 -81 131 -157 244
-169 253 -26 18 -44 19 -77 2z"/>
<path d="M640 1942 c-61 -29 -110 -97 -110 -151 0 -72 83 -151 160 -151 77 0
160 79 160 151 0 36 -37 103 -72 129 -32 24 -109 36 -138 22z"/>
<path d="M1200 1942 c-61 -29 -110 -97 -110 -151 0 -72 83 -151 160 -151 77 0
160 79 160 151 0 36 -37 103 -72 129 -32 24 -109 36 -138 22z"/>
<path d="M1760 1942 c-61 -29 -110 -97 -110 -151 0 -72 83 -151 160 -151 77 0
160 79 160 151 0 36 -37 103 -72 129 -32 24 -109 36 -138 22z"/>
<path d="M2320 1942 c-61 -29 -110 -97 -110 -151 0 -72 83 -151 160 -151 77 0
160 79 160 151 0 36 -37 103 -72 129 -32 24 -109 36 -138 22z"/>
<path d="M640 1382 c-61 -29 -110 -97 -110 -151 0 -72 83 -151 160 -151 77 0
160 79 160 151 0 36 -37 103 -72 129 -32 24 -109 36 -138 22z"/>
<path d="M1200 1382 c-61 -29 -110 -97 -110 -151 0 -72 83 -151 160 -151 77 0
160 79 160 151 0 36 -37 103 -72 129 -32 24 -109 36 -138 22z"/>
<path d="M1760 1382 c-61 -29 -110 -97 -110 -151 0 -72 83 -151 160 -151 77 0
160 79 160 151 0 36 -37 103 -72 129 -32 24 -109 36 -138 22z"/>
</g>
</svg>
